<svg width="11" height="11" viewBox="0 0 11 11" fill="none" xmlns="http://www.w3.org/2000/svg">
    <path d="M8.72266 7.82422C9.00195 8.08203 9.00195 8.5332 8.72266 8.79102C8.59375 8.91992 8.42188 8.98438 8.25 8.98438C8.05664 8.98438 7.88477 8.91992 7.75586 8.79102L5.5 6.53516L3.22266 8.79102C3.09375 8.91992 2.92188 8.98438 2.75 8.98438C2.55664 8.98438 2.38477 8.91992 2.25586 8.79102C1.97656 8.5332 1.97656 8.08203 2.25586 7.82422L4.51172 5.54688L2.25586 3.29102C1.97656 3.0332 1.97656 2.58203 2.25586 2.32422C2.51367 2.04492 2.96484 2.04492 3.22266 2.32422L5.5 4.58008L7.75586 2.32422C8.01367 2.04492 8.46484 2.04492 8.72266 2.32422C9.00195 2.58203 9.00195 3.0332 8.72266 3.29102L6.4668 5.56836L8.72266 7.82422Z"/>
</svg>
